HIERARCHY
ROOT hip
{
	OFFSET 0.000000 0.000000 0.000000
	CHANNELS 6 Xposition Yposition Zposition Zrotation Yrotation Xrotation 
	JOINT lhipjoint
	{
		OFFSET 0.000000 0.000000 0.000000
		CHANNELS 3 Zrotation Yrotation Xrotation
		JOINT lfemur
		{
			OFFSET 1.363060 -1.794630 0.839290
			CHANNELS 3 Zrotation Yrotation Xrotation
			JOINT ltibia
			{
				OFFSET 2.448110 -6.726130 0.000000
				CHANNELS 3 Zrotation Yrotation Xrotation
				JOINT lfoot
				{
					OFFSET 2.562200 -7.039590 0.000000
					CHANNELS 3 Zrotation Yrotation Xrotation
					JOINT ltoes
					{
						OFFSET 0.157640 -0.433110 2.322550
						CHANNELS 3 Zrotation Yrotation Xrotation
						End Site
						{
							OFFSET 0.000000 0.000000 0.000000
						}
					}
				}
			}
		}
	}
	JOINT rhipjoint
	{
		OFFSET 0.000000 0.000000 0.000000
		CHANNELS 3 Zrotation Yrotation Xrotation
		JOINT rfemur
		{
			OFFSET -1.305520 -1.794630 0.839290
			CHANNELS 3 Zrotation Yrotation Xrotation
			JOINT rtibia
			{
				OFFSET -2.542530 -6.985550 0.000000
				CHANNELS 3 Zrotation Yrotation Xrotation
				JOINT rfoot
				{
					OFFSET -2.568260 -7.056230 0.000000
					CHANNELS 3 Zrotation Yrotation Xrotation
					JOINT rtoes
					{
						OFFSET -0.164730 -0.452590 2.363150
						CHANNELS 3 Zrotation Yrotation Xrotation
						End Site
						{
							OFFSET 0.000000 0.000000 0.000000
						}
					}
				}
			}
		}
	}
	JOINT lowerback
	{
		OFFSET 0.000000 0.000000 0.000000
		CHANNELS 3 Zrotation Yrotation Xrotation
		JOINT upperback
		{
			OFFSET 0.028270 2.035590 -0.193380
			CHANNELS 3 Zrotation Yrotation Xrotation
			JOINT thorax
			{
				OFFSET 0.056720 2.048850 -0.042750
				CHANNELS 3 Zrotation Yrotation Xrotation
				JOINT lowerneck
				{
					OFFSET 0.000000 0.000000 0.000000
					CHANNELS 3 Zrotation Yrotation Xrotation
					JOINT upperneck
					{
						OFFSET -0.054170 1.746240 0.172020
						CHANNELS 3 Zrotation Yrotation Xrotation
						JOINT head
						{
							OFFSET 0.104070 1.761360 -0.123970
							CHANNELS 3 Zrotation Yrotation Xrotation
							End Site
							{
								OFFSET 0.000000 0.000000 0.000000
							}
						}
					}
				}
				JOINT lclavicle
				{
					OFFSET 0.000000 0.000000 0.000000
					CHANNELS 3 Zrotation Yrotation Xrotation
					JOINT lhumerus
					{
						OFFSET 3.362410 1.200890 -0.311210
						CHANNELS 3 Zrotation Yrotation Xrotation
						JOINT lradius
						{
							OFFSET 4.983000 -0.000000 -0.000000
							CHANNELS 3 Zrotation Yrotation Xrotation
							JOINT lwrist
							{
								OFFSET 3.483560 -0.000000 -0.000000
								CHANNELS 3 Zrotation Yrotation Xrotation
								JOINT lhand
								{
									OFFSET 0.000000 0.000000 0.000000
									CHANNELS 3 Zrotation Yrotation Xrotation
									JOINT lfingers
									{
										OFFSET 0.715260 -0.000000 -0.000000
										CHANNELS 3 Zrotation Yrotation Xrotation
										End Site
										{
											OFFSET 0.000000 0.000000 0.000000
										}
									}
								}
								JOINT lthumb
								{
									OFFSET 0.000000 0.000000 0.000000
									CHANNELS 3 Zrotation Yrotation Xrotation
									End Site
									{
										OFFSET 0.000000 0.000000 0.000000
									}
								}
							}
						}
					}
				}
				JOINT rclavicle
				{
					OFFSET 0.000000 0.000000 0.000000
					CHANNELS 3 Zrotation Yrotation Xrotation
					JOINT rhumerus
					{
						OFFSET -3.136600 1.374050 -0.404650
						CHANNELS 3 Zrotation Yrotation Xrotation
						JOINT rradius
						{
							OFFSET -5.241900 -0.000000 -0.000000
							CHANNELS 3 Zrotation Yrotation Xrotation
							JOINT rwrist
							{
								OFFSET -3.444170 -0.000000 -0.000000
								CHANNELS 3 Zrotation Yrotation Xrotation
								JOINT rhand
								{
									OFFSET 0.000000 0.000000 0.000000
									CHANNELS 3 Zrotation Yrotation Xrotation
									JOINT rfingers
									{
										OFFSET -0.622530 -0.000000 -0.000000
										CHANNELS 3 Zrotation Yrotation Xrotation
										End Site
										{
											OFFSET 0.000000 0.000000 0.000000
										}
									}
								}
								JOINT rthumb
								{
									OFFSET 0.000000 0.000000 0.000000
									CHANNELS 3 Zrotation Yrotation Xrotation
									End Site
									{
										OFFSET 0.000000 0.000000 0.000000
									}
								}
							}
						}
					}
				}
			}
		}
	}
}
MOTION
Frames: 12
Frame Time: 0.008333
0.621633 15.313057 -16.789473 10.691518 17.174055 18.629150 7.629662 2.423267 0.048995 -22.185743 -27.395840 -61.900665 10.547517 21.365267 65.056513 5.922718 -17.799517 12.285554 0.085400 -1.884700 -5.187100 -8.222475 -4.445327 3.265602 -2.070100 13.806692 -66.879926 -15.710388 -22.176454 78.640176 -0.720437 -2.273820 -7.937627 -0.780700 5.641200 -15.746800 11.248247 -6.657206 86.230553 0.104078 2.735052 -1.700829 -5.681795 3.155936 -8.467699 -1.670528 -8.225168 -0.012252 3.968556 -10.803055 8.852176 2.068900 -5.230900 2.169000 -3.780849 -5.134281 3.891930 -71.282814 3.409345 47.054850 43.204417 -56.439529 -16.194752 -0.173048 2.652611 -14.439924 8.850908 -7.269136 -1.454600 -7.125000 0.000000 0.000000 -13.207100 20.066400 8.089100 4.614335 6.965837 0.264918 1.198727 47.296132 -57.950777 5.056657 5.403379 0.135427 -0.332912 0.350510 19.715210 -45.831914 0.654077 -0.363100 7.125000 0.000000 0.000000 -14.646400 -29.311200 -5.773300 
0.617454 15.281413 -16.787980 10.772897 17.304249 18.644483 7.619028 2.430427 0.057708 -22.185287 -27.439059 -62.157606 10.684228 21.429845 65.455216 5.946575 -17.997374 12.248688 0.082000 -1.847100 -5.083200 -8.192951 -4.446933 3.275113 -2.247618 13.755271 -67.096550 -15.875243 -22.214033 79.109945 -0.721053 -2.284376 -8.108241 -0.789800 5.673200 -15.839000 11.198993 -6.629711 86.233244 0.103788 2.729402 -1.700157 -5.663115 3.153217 -8.488864 -1.684161 -8.202206 0.055624 3.982439 -10.769771 8.904154 2.086700 -5.215300 2.187600 -3.773039 -5.120887 3.901951 -71.314510 3.251334 47.005866 43.091326 -56.373165 -16.121336 -0.170704 2.643361 -14.373782 8.730166 -7.252169 -1.429900 -7.125000 0.000000 0.000000 -13.291700 20.097500 8.134300 4.592521 6.945785 0.235150 1.466769 47.416368 -57.609868 4.999070 5.427061 0.127182 -0.374671 0.339706 18.625958 -46.728071 0.417628 -0.143900 7.125000 0.000000 0.000000 -15.352500 -29.594800 -5.962500 
0.613573 15.250167 -16.786090 10.845819 17.432249 18.657358 7.608485 2.436463 0.065309 -22.185209 -27.476321 -62.394779 10.810522 21.488088 65.820620 5.968276 -18.176390 12.202885 0.081300 -1.839100 -5.061200 -8.162568 -4.448119 3.284053 -2.400819 13.678268 -67.300107 -16.027084 -22.248776 79.541721 -0.731229 -2.265041 -8.241565 -0.804800 5.725400 -15.989600 11.144249 -6.604648 86.236241 0.103238 2.711985 -1.699376 -5.656889 3.145974 -8.517188 -1.675902 -8.164727 0.142042 4.000141 -10.717890 8.954463 2.101400 -5.190100 2.192700 -3.769020 -5.103733 3.913246 -71.311440 3.119104 46.973601 43.043301 -56.333866 -16.084718 -0.174973 2.630800 -14.385931 8.596839 -7.179823 -1.395600 -7.125000 0.000000 0.000000 -13.386700 20.185600 8.168400 4.571623 6.922717 0.204420 1.773793 47.600203 -57.233831 4.913449 5.523900 0.113076 -0.416982 0.324888 17.449589 -47.588612 0.269766 -0.010400 7.125000 0.000000 0.000000 -16.013700 -29.755000 -6.174200 
0.609792 15.226185 -16.785493 10.897981 17.566648 18.641667 7.601104 2.442084 0.076414 -22.176115 -27.509994 -62.572176 10.914131 21.536584 66.127143 5.988859 -18.361687 12.215448 0.076500 -1.784200 -4.909800 -8.142312 -4.448928 3.293516 -2.510946 13.628471 -67.428660 -16.156260 -22.275078 79.906922 -0.735620 -2.264091 -8.388790 -0.802900 5.718900 -15.971000 11.105207 -6.597372 86.292845 0.101996 2.702777 -1.707089 -5.657936 3.137608 -8.596191 -1.679265 -8.135806 0.262921 4.010155 -10.674184 9.012470 2.115000 -5.169500 2.204700 -3.765261 -5.104744 3.922982 -71.319925 2.990307 46.947138 42.955987 -56.267306 -16.023523 -0.186760 2.620448 -14.342896 8.502789 -7.037805 -1.361000 -7.125000 0.000000 0.000000 -13.452200 20.335900 8.163800 4.547431 6.919528 0.162675 2.052524 47.761959 -56.862933 4.879629 5.534649 0.104671 -0.460841 0.313339 16.261781 -48.542403 0.233691 0.012800 7.125000 0.000000 0.000000 -16.718500 -29.764200 -6.463900 
0.605911 15.203298 -16.783701 10.941726 17.703495 18.638433 7.594420 2.446871 0.084303 -22.180558 -27.514066 -62.737702 11.009033 21.580180 66.404364 6.010848 -18.553378 12.197071 0.075800 -1.776200 -4.887500 -8.124389 -4.450302 3.301284 -2.598200 13.586872 -67.549193 -16.272016 -22.298438 80.233608 -0.730004 -2.291306 -8.526780 -0.817000 5.767600 -16.111500 11.089312 -6.591321 86.330776 0.099753 2.704727 -1.710709 -5.666524 3.137188 -8.655164 -1.689484 -8.119828 0.388850 4.032759 -10.646418 9.047088 2.147100 -5.157600 2.195300 -3.763879 -5.094467 3.934933 -71.342419 2.834843 46.937667 42.866458 -56.200530 -15.953385 -0.199648 2.602895 -14.304608 8.331080 -6.871955 -1.309800 -7.125000 0.000000 0.000000 -13.573300 20.519100 8.183800 4.525310 6.906698 0.137998 2.284398 47.922011 -56.565243 4.823897 5.585517 0.096856 -0.501926 0.301960 15.073376 -49.483785 0.200698 0.037600 7.125000 0.000000 0.000000 -17.413600 -29.773200 -6.752200 
0.602329 15.184789 -16.782806 10.970947 17.846529 18.617202 7.589786 2.450646 0.092473 -22.180951 -27.524932 -62.865333 11.091164 21.617907 66.644755 6.033172 -18.752133 12.179102 0.076900 -1.788500 -4.921600 -8.110231 -4.450967 3.307981 -2.643633 13.532411 -67.623538 -16.369619 -22.317463 80.508315 -0.715810 -2.343141 -8.658391 -0.827000 5.802000 -16.211100 11.089073 -6.605359 86.386505 0.097063 2.701415 -1.716287 -5.687223 3.134684 -8.728278 -1.689544 -8.099721 0.535711 4.042626 -10.611406 9.084475 2.168300 -5.141900 2.176700 -3.760632 -5.084684 3.947469 -71.389199 2.675449 46.920419 42.787652 -56.135802 -15.887658 -0.223984 2.587408 -14.255569 8.185849 -6.610332 -1.253600 -7.125000 0.000000 0.000000 -13.675100 20.790000 8.162600 4.504177 6.896172 0.112826 2.492855 48.111574 -56.292591 4.788635 5.617756 0.092955 -0.544143 0.293671 13.847644 -50.462956 0.281431 -0.064300 7.125000 0.000000 0.000000 -18.104000 -29.621400 -7.114700 
0.599343 15.167873 -16.782109 10.960023 18.005871 18.589307 7.585285 2.452926 0.100339 -22.136791 -27.525810 -62.979286 11.164763 21.651686 66.862687 6.053588 -18.944403 12.191617 0.075300 -1.770700 -4.872300 -8.100569 -4.453388 3.315843 -2.646717 13.490076 -67.684677 -16.459885 -22.335070 80.760844 -0.709769 -2.369722 -8.763040 -0.820400 5.779400 -16.145500 11.140049 -6.644136 86.444734 0.091752 2.706846 -1.722914 -5.763350 3.139403 -8.818689 -1.640696 -8.087645 0.714336 4.057395 -10.585716 9.110211 2.185100 -5.129800 2.133600 -3.764129 -5.077301 3.963414 -71.384882 2.538137 46.953708 42.716869 -56.068717 -15.827152 -0.244887 2.565446 -14.243724 8.016640 -6.374402 -1.196500 -7.125000 0.000000 0.000000 -13.795900 21.043500 8.157400 4.485653 6.896348 0.088250 2.761016 48.244140 -55.956317 4.706477 5.729918 0.076842 -0.582976 0.274200 12.598322 -51.432951 0.308315 -0.122500 7.125000 0.000000 0.000000 -18.797800 -29.526200 -7.461000 
0.596059 15.151553 -16.780617 10.950689 18.150906 18.557999 7.583493 2.457057 0.105738 -22.108746 -27.524614 -63.078602 11.233080 21.682836 67.062834 6.074396 -19.138651 12.183796 0.074000 -1.754900 -4.828800 -8.091380 -4.452769 3.319222 -2.636672 13.447342 -67.731135 -16.540386 -22.350262 80.985936 -0.689304 -2.438622 -8.883147 -0.837800 5.838700 -16.317200 11.147692 -6.648986 86.490708 0.090480 2.724425 -1.726011 -5.769818 3.141498 -8.873710 -1.632340 -8.079463 0.850076 4.059947 -10.567086 9.151159 2.194000 -5.121500 2.114500 -3.754071 -5.060350 3.974343 -71.424030 2.386865 46.975740 42.648169 -56.017465 -15.766332 -0.269736 2.553104 -14.233721 7.903007 -6.122592 -1.148800 -7.125000 0.000000 0.000000 -13.877500 21.299700 8.125400 4.471213 6.875190 0.071434 2.950611 48.462582 -55.697460 4.638934 5.819502 0.070515 -0.625434 0.263514 11.367156 -52.398840 0.397886 -0.247900 7.125000 0.000000 0.000000 -19.464300 -29.351300 -7.841800 
0.591781 15.137821 -16.779323 10.958210 18.298525 18.526520 7.582486 2.458764 0.110191 -22.107064 -27.512811 -63.137904 11.293286 21.710022 67.237266 6.094634 -19.326316 12.158942 0.076000 -1.778500 -4.893900 -8.084251 -4.453621 3.323339 -2.643355 13.413047 -67.760065 -16.614641 -22.363395 81.193827 -0.670792 -2.500831 -8.987906 -0.841500 5.851500 -16.354000 11.164801 -6.655247 86.533366 0.086511 2.736722 -1.729092 -5.803746 3.147693 -8.929445 -1.631821 -8.076190 0.978562 4.088467 -10.554652 9.179939 2.232300 -5.117400 2.101000 -3.758069 -5.045605 3.985760 -71.428255 2.250966 46.996216 42.614585 -55.974418 -15.725420 -0.290751 2.529764 -14.236572 7.703853 -5.884713 -1.089100 -7.125000 0.000000 0.000000 -14.021700 21.556600 8.130600 4.450702 6.860612 0.052282 3.175710 48.632337 -55.418672 4.548324 5.941899 0.057146 -0.666773 0.246067 10.180541 -53.422647 0.411011 -0.292300 7.125000 0.000000 0.000000 -20.190800 -29.274100 -8.210000 
0.588795 15.124885 -16.777830 10.928901 18.451659 18.481381 7.582692 2.460891 0.115669 -22.058781 -27.511735 -63.200936 11.348178 21.735418 67.401282 6.113790 -19.521631 12.176250 0.073600 -1.750200 -4.815700 -8.080920 -4.454266 3.326824 -2.599116 13.381630 -67.762779 -16.679342 -22.374820 81.373030 -0.661401 -2.536780 -9.095294 -0.842100 5.853200 -16.359200 11.202504 -6.678683 86.572046 0.082774 2.749835 -1.734200 -5.860997 3.154388 -8.970514 -1.569078 -8.083251 1.033191 4.091734 -10.562149 9.229852 2.218600 -5.119300 2.123800 -3.753504 -5.031811 3.988806 -71.410021 2.105297 47.056483 42.569085 -55.924687 -15.680124 -0.313775 2.512090 -14.303971 7.577135 -5.651156 -1.042400 -7.125000 0.000000 0.000000 -14.116000 21.800700 8.107600 4.440617 6.848238 0.020829 3.376003 48.825302 -55.156613 4.465795 6.053351 0.045259 -0.710668 0.228329 9.032830 -54.498913 0.362054 -0.254100 7.125000 0.000000 0.000000 -20.970500 -29.291100 -8.559900 
0.585312 15.115531 -16.775840 10.910671 18.592846 18.456531 7.583900 2.463113 0.117574 -22.029517 -27.496992 -63.258644 11.395455 21.757297 67.540944 6.132662 -19.712839 12.172874 0.075900 -1.776800 -4.889200 -8.077043 -4.453787 3.327122 -2.565011 13.354643 -67.762489 -16.736574 -22.384798 81.531757 -0.643381 -2.598397 -9.215067 -0.853400 5.891400 -16.469700 11.228137 -6.679682 86.577768 0.080392 2.773447 -1.734140 -5.898374 3.165341 -8.969846 -1.496841 -8.095062 1.042029 4.097543 -10.579592 9.278110 2.197500 -5.124900 2.152600 -3.741837 -5.007387 3.988211 -71.415610 1.982868 47.109336 42.587278 -55.917381 -15.671179 -0.341299 2.499136 -14.336605 7.484257 -5.385512 -0.998900 -7.125000 0.000000 0.000000 -14.185700 22.068900 8.060500 4.438350 6.820613 0.004869 3.510967 49.028998 -54.974668 4.364124 6.193307 0.036395 -0.753611 0.213565 7.990004 -55.584707 0.302467 -0.190000 7.125000 0.000000 0.000000 -21.759800 -29.333300 -8.904800 
0.581233 15.104884 -16.774447 10.864343 18.760193 18.421692 7.585948 2.466094 0.118739 -21.974158 -27.482851 -63.321913 11.440536 21.778565 67.675523 6.152593 -19.923061 12.178582 0.076700 -1.786700 -4.916500 -8.074065 -4.452438 3.325667 -2.495821 13.321894 -67.752063 -16.788691 -22.394686 81.675100 -0.637302 -2.624268 -9.314432 -0.847600 5.872000 -16.413400 11.275514 -6.699369 86.577468 0.079195 2.803032 -1.732721 -5.918351 3.176935 -8.961763 -1.450220 -8.103870 1.062250 4.101322 -10.591020 9.318829 2.185800 -5.128700 2.169500 -3.728343 -4.975512 3.987865 -71.444281 1.819341 47.176016 42.582022 -55.901719 -15.643933 -0.369727 2.486932 -14.414939 7.379876 -5.119973 -0.954300 -7.125000 0.000000 0.000000 -14.265200 22.336200 8.018500 4.437100 6.783939 0.001826 3.581677 49.262962 -54.865405 4.268755 6.324346 0.034163 -0.798183 0.201835 7.029301 -56.682398 0.147484 0.030600 7.125000 0.000000 0.000000 -22.593100 -29.544700 -9.174800 
